<?xml version="1.0" encoding="utf-8"?>
<!-- Generator: Adobe Illustrator 15.0.0, SVG Export Plug-In . SVG Version: 6.00 Build 0)  -->
<!DOCTYPE svg PUBLIC "-//W3C//DTD SVG 1.1//EN" "http://www.w3.org/Graphics/SVG/1.1/DTD/svg11.dtd">
<svg version="1.1" id="Ebene_1" xmlns="http://www.w3.org/2000/svg" xmlns:xlink="http://www.w3.org/1999/xlink" x="0px" y="0px"
	 width="240px" height="45px" viewBox="299.722 64.496 240 45" enable-background="new 299.722 64.496 240 45" xml:space="preserve"
	>
<g id="front">
	<polyline fill="#5F5E5E" points="358.527,72.995 358.527,65.6 363.775,65.6 363.775,66.536 359.473,66.536 359.473,68.831 
		363.775,68.831 363.775,69.766 359.473,69.766 359.473,72.059 363.775,72.059 363.775,72.995 358.527,72.995 	"/>
	<polyline fill="#5F5E5E" points="366.869,72.995 366.869,65.6 367.818,65.6 367.818,72.059 372.118,72.059 372.118,72.995 
		366.869,72.995 	"/>
	<rect x="374.889" y="65.6" fill="#5F5E5E" width="0.947" height="7.395"/>
	<path fill="#5F5E5E" d="M381.56,67.084l-1.114,3.355h2.241L381.56,67.084 M383.539,72.995l-0.537-1.609h-2.871l-0.548,1.609h-0.986
		l2.471-7.404h0.987l2.472,7.404H383.539z"/>
	<polyline fill="#5F5E5E" points="391.683,72.995 388.244,67.42 388.244,72.995 387.298,72.995 387.298,65.6 388.159,65.6 
		391.598,71.177 391.598,65.6 392.545,65.6 392.545,72.995 391.683,72.995 	"/>
	<polyline fill="#5F5E5E" points="395.853,72.995 395.853,65.6 401.101,65.6 401.101,66.536 396.799,66.536 396.799,68.831 
		401.101,68.831 401.101,69.766 396.799,69.766 396.799,72.059 401.101,72.059 401.101,72.995 395.853,72.995 	"/>
	<path fill="#5F5E5E" d="M310.423,80.865h-2.262v2.282h2.262c0.629,0,1.093-0.526,1.093-1.137
		C311.516,81.401,311.052,80.865,310.423,80.865 M310.423,77.634h-2.262v2.283h2.262c0.629,0,1.093-0.525,1.093-1.137
		C311.516,78.171,311.052,77.634,310.423,77.634z M310.423,84.093h-3.21v-7.405h3.21c1.146,0,2.04,0.956,2.04,2.093
		c0,0.611-0.273,1.208-0.746,1.611c0.473,0.398,0.746,0.997,0.746,1.618C312.462,83.137,311.568,84.093,310.423,84.093z"/>
	<path fill="#5F5E5E" d="M317.782,78.182l-1.114,3.355h2.241L317.782,78.182 M319.76,84.093l-0.537-1.608h-2.87l-0.548,1.608h-0.989
		l2.472-7.405h0.988l2.472,7.405H319.76z"/>
	<path fill="#5F5E5E" d="M327.164,78.474c-0.306-0.516-0.852-0.841-1.464-0.841c-0.923,0-1.671,0.757-1.671,1.684v2.155
		c0,0.926,0.748,1.685,1.671,1.685c0.613,0,1.158-0.326,1.464-0.843l0.81,0.463c-0.463,0.821-1.326,1.313-2.274,1.313
		c-1.439,0-2.616-1.176-2.616-2.619v-2.155c0-1.452,1.177-2.62,2.616-2.62c0.948,0,1.811,0.494,2.285,1.315L327.164,78.474"/>
	<polyline fill="#5F5E5E" points="335.235,84.093 335.235,80.865 331.88,80.865 331.88,84.093 330.933,84.093 330.933,76.699 
		331.88,76.699 331.88,79.928 335.235,79.928 335.235,76.699 336.183,76.699 336.183,84.093 335.235,84.093 	"/>
	<polyline fill="#5F5E5E" points="339.489,84.093 339.489,76.699 344.739,76.699 344.739,77.634 340.436,77.634 340.436,79.928 
		344.739,79.928 344.739,80.865 340.436,80.865 340.436,83.158 344.739,83.158 344.739,84.093 339.489,84.093 	"/>
	<polyline fill="#5F5E5E" points="352.219,84.093 348.78,78.518 348.78,84.093 347.832,84.093 347.832,76.699 348.695,76.699 
		352.134,82.272 352.134,76.699 353.081,76.699 353.081,84.093 352.219,84.093 	"/>
	<polyline fill="#5F5E5E" points="360.693,84.093 360.693,80.865 357.338,80.865 357.338,84.093 356.391,84.093 356.391,76.699 
		357.338,76.699 357.338,79.928 360.693,79.928 360.693,76.699 361.639,76.699 361.639,84.093 360.693,84.093 	"/>
	<polyline fill="#5F5E5E" points="364.947,84.093 364.947,76.699 370.195,76.699 370.195,77.634 365.893,77.634 365.893,79.928 
		370.195,79.928 370.195,80.865 365.893,80.865 365.893,83.158 370.195,83.158 370.195,84.093 364.947,84.093 	"/>
	<rect x="373.301" y="76.698" fill="#5F5E5E" width="0.947" height="7.394"/>
	<polyline fill="#5F5E5E" points="383.262,84.093 383.262,79.118 381.316,84.093 380.453,84.093 378.485,79.118 378.485,84.093 
		377.539,84.093 377.539,76.699 378.445,76.699 380.884,82.746 383.305,76.699 384.21,76.699 384.21,84.093 383.262,84.093 	"/>
	<polyline fill="#5F5E5E" points="387.52,84.093 387.52,76.699 392.771,76.699 392.771,77.634 388.466,77.634 388.466,79.928 
		392.771,79.928 392.771,80.865 388.466,80.865 388.466,83.158 392.771,83.158 392.771,84.093 387.52,84.093 	"/>
	<path fill="#5F5E5E" d="M399.072,77.634h-2.261v2.294h2.261c0.631,0,1.093-0.536,1.093-1.147
		C400.165,78.171,399.703,77.634,399.072,77.634 M400.334,84.093l-1.442-3.228h-2.082v3.228h-0.947v-7.394h3.208
		c1.146,0,2.041,0.945,2.041,2.082c0,0.83-0.496,1.599-1.254,1.925l1.507,3.386L400.334,84.093L400.334,84.093z"/>
	<path fill="#5F5E5E" d="M362.702,88.731h-2.261v2.292h2.261c0.633,0,1.093-0.535,1.093-1.146
		C363.796,89.267,363.335,88.731,362.702,88.731 M362.702,91.959h-2.261v3.231h-0.948v-7.396h3.208c1.146,0,2.041,0.945,2.041,2.082
		C364.743,91.006,363.848,91.959,362.702,91.959z"/>
	<path fill="#5F5E5E" d="M372.792,92.568c0,1.441-1.178,2.623-2.63,2.623c-1.441,0-2.619-1.182-2.619-2.623v-4.775h0.946v4.775
		c0,0.929,0.747,1.682,1.672,1.682c0.937,0,1.683-0.753,1.683-1.682v-4.775h0.947V92.568"/>
	<path fill="#5F5E5E" d="M379.236,91.959h-2.261v2.281h2.261c0.63,0,1.093-0.522,1.093-1.137
		C380.329,92.496,379.866,91.959,379.236,91.959 M379.236,88.731h-2.261v2.281h2.261c0.63,0,1.093-0.524,1.093-1.136
		C380.329,89.267,379.866,88.731,379.236,88.731z M379.236,95.191h-3.208v-7.407h3.208c1.147,0,2.041,0.956,2.041,2.093
		c0,0.611-0.274,1.209-0.746,1.61c0.471,0.396,0.746,0.998,0.746,1.617C381.277,94.231,380.383,95.191,379.236,95.191z"/>
	<polyline fill="#5F5E5E" points="384.323,95.191 384.323,87.792 385.271,87.792 385.271,94.254 389.573,94.254 389.573,95.191 
		384.323,95.191 	"/>
	<rect x="392.345" y="87.794" fill="#5F5E5E" width="0.947" height="7.396"/>
	<path fill="#5F5E5E" d="M400.492,89.573c-0.306-0.517-0.852-0.842-1.463-0.842c-0.924,0-1.674,0.758-1.674,1.683v2.156
		c0,0.927,0.75,1.685,1.674,1.685c0.612,0,1.158-0.33,1.463-0.844l0.81,0.464c-0.462,0.82-1.327,1.316-2.273,1.316
		c-1.439,0-2.617-1.182-2.617-2.621v-2.156c0-1.451,1.177-2.619,2.617-2.619c0.946,0,1.811,0.496,2.286,1.314L400.492,89.573"/>
	<path fill="#5F5E5E" d="M339.598,99.829h-2.26v2.293h2.26c0.631,0,1.093-0.536,1.093-1.149
		C340.691,100.365,340.229,99.829,339.598,99.829 M340.86,106.288l-1.441-3.232h-2.082v3.232h-0.948v-7.393h3.208
		c1.146,0,2.041,0.944,2.041,2.079c0,0.83-0.494,1.6-1.25,1.927l1.504,3.387H340.86L340.86,106.288z"/>
	<polyline fill="#5F5E5E" points="344.818,106.288 344.818,98.895 350.066,98.895 350.066,99.829 345.765,99.829 345.765,102.122 
		350.066,102.122 350.066,103.055 345.765,103.055 345.765,105.354 350.066,105.354 350.066,106.288 344.818,106.288 	"/>
	<polyline fill="#5F5E5E" points="353.162,106.288 353.162,98.895 354.109,98.895 354.109,105.354 358.409,105.354 358.409,106.288 
		353.162,106.288 	"/>
	<path fill="#5F5E5E" d="M363.186,100.375l-1.115,3.356h2.24L363.186,100.375 M365.162,106.288l-0.536-1.611h-2.872l-0.548,1.611
		h-0.99l2.474-7.408h0.988l2.471,7.408H365.162z"/>
	<polyline fill="#5F5E5E" points="370.584,99.829 370.584,106.288 369.65,106.288 369.65,99.829 367.493,99.829 367.493,98.895 
		372.743,98.895 372.743,99.829 370.584,99.829 	"/>
	<rect x="375.508" y="98.892" fill="#5F5E5E" width="0.946" height="7.396"/>
	<path fill="#5F5E5E" d="M383.876,101.51c0-0.926-0.747-1.685-1.685-1.685c-0.924,0-1.671,0.759-1.671,1.685v2.158
		c0,0.923,0.747,1.68,1.671,1.68c0.939,0,1.685-0.757,1.685-1.68V101.51 M384.823,103.668c0,1.439-1.178,2.619-2.632,2.619
		c-1.44,0-2.618-1.18-2.618-2.619v-2.158c0-1.453,1.178-2.619,2.618-2.619c1.454,0,2.632,1.166,2.632,2.619V103.668z"/>
	<polyline fill="#5F5E5E" points="392.332,106.288 388.893,100.713 388.893,106.288 387.945,106.288 387.945,98.895 388.807,98.895 
		392.247,104.467 392.247,98.895 393.195,98.895 393.195,106.288 392.332,106.288 	"/>
	<path fill="#5F5E5E" d="M399.326,106.288h-1.168c-0.905,0-1.651-0.591-1.924-1.398l0.882-0.309
		c0.158,0.454,0.568,0.773,1.042,0.773h1.168c0.588,0,1.093-0.508,1.093-1.152c0-0.589-0.4-0.841-0.956-0.996
		c-0.432-0.117-0.936-0.181-1.442-0.285c-0.989-0.201-1.904-0.582-1.904-1.946c0-1.135,0.896-2.08,2.041-2.08h1.168
		c0.895,0,1.649,0.589,1.925,1.388l-0.896,0.305c-0.148-0.453-0.557-0.758-1.03-0.758h-1.168c-0.602,0-1.094,0.505-1.094,1.146
		c0,0.59,0.4,0.843,0.957,1c0.431,0.116,0.939,0.178,1.442,0.286c0.988,0.195,1.903,0.576,1.903,1.941
		C401.366,105.338,400.463,106.288,399.326,106.288"/>
</g>
<polyline fill="#E9AA00" points="406.225,106.213 406.225,65.496 434.153,65.496 434.153,67.924 408.596,67.924 408.596,84.638 
	434.153,84.638 434.153,87.069 408.596,87.069 408.596,103.841 434.153,103.841 434.153,106.213 406.225,106.213 "/>
<path fill="#E9AA00" d="M457.171,87.069h-15.092v16.772h15.092c4.396,0,8.101-3.759,8.101-8.387
	C465.272,90.771,461.568,87.069,457.171,87.069 M457.171,67.868h-15.092v16.771h15.092c4.396,0,8.101-3.701,8.101-8.383
	C465.272,71.625,461.568,67.868,457.171,67.868z M457.171,106.213h-17.463V65.496h17.463c5.842,0,10.47,4.858,10.47,10.759
	c0,4.162-2.312,7.807-5.669,9.597c3.356,1.795,5.669,5.439,5.669,9.603C467.641,101.351,463.013,106.213,457.171,106.213z"/>
<path fill="#E9AA00" d="M490.658,73.073H480.42v8.963h10.238c2.487,0,4.28-2.084,4.28-4.456
	C494.939,75.212,493.146,73.073,490.658,73.073 M490.658,89.672H480.42v16.541h-7.571V65.496h17.81
	c6.653,0,11.858,5.553,11.858,12.086C502.517,84.118,497.312,89.672,490.658,89.672z"/>
<path fill="#E9AA00" d="M524.723,73.073h-10.236v8.963h10.236c2.49,0,4.281-2.082,4.281-4.452
	C529.004,75.214,527.213,73.073,524.723,73.073 M530.39,106.213l-7.4-16.541h-8.503v16.541h-7.574V65.496h17.811
	c6.651,0,11.858,5.553,11.858,12.089c0,4.279-2.316,8.327-6.018,10.526l8.158,18.103H530.39L530.39,106.213z"/>
</svg>
