<?xml version="1.0" encoding="utf-8"?>
<!-- Generator: Adobe Illustrator 15.0.0, SVG Export Plug-In . SVG Version: 6.00 Build 0)  -->
<!DOCTYPE svg PUBLIC "-//W3C//DTD SVG 1.1//EN" "http://www.w3.org/Graphics/SVG/1.1/DTD/svg11.dtd">
<svg version="1.1" id="Ebene_1" xmlns="http://www.w3.org/2000/svg" xmlns:xlink="http://www.w3.org/1999/xlink" x="0px" y="0px"
	 width="841.889px" height="173.991px" viewBox="0 217.735 841.889 173.991" enable-background="new 0 217.735 841.889 173.991"
	 xml:space="preserve">
<g id="front">
	<polyline fill="#5F5E5E" points="206.462,252.408 206.462,227.738 223.974,227.738 223.974,230.86 209.618,230.86 209.618,238.513 
		223.974,238.513 223.974,241.634 209.618,241.634 209.618,249.287 223.974,249.287 223.974,252.408 206.462,252.408 	"/>
	<polyline fill="#5F5E5E" points="234.297,252.408 234.297,227.738 237.459,227.738 237.459,249.287 251.808,249.287 
		251.808,252.408 234.297,252.408 	"/>
	<rect x="261.056" y="227.738" fill="#5F5E5E" width="3.16" height="24.67"/>
	<path fill="#5F5E5E" d="M283.311,232.688l-3.715,11.194h7.477L283.311,232.688 M289.914,252.408l-1.793-5.369h-9.577l-1.828,5.369
		h-3.293l8.246-24.706h3.295l8.247,24.706H289.914z"/>
	<polyline fill="#5F5E5E" points="317.087,252.408 305.614,233.807 305.614,252.408 302.453,252.408 302.453,227.738 
		305.331,227.738 316.804,246.341 316.804,227.738 319.964,227.738 319.964,252.408 317.087,252.408 	"/>
	<polyline fill="#5F5E5E" points="330.999,252.408 330.999,227.738 348.51,227.738 348.51,230.86 334.156,230.86 334.156,238.513 
		348.51,238.513 348.51,241.634 334.156,241.634 334.156,249.287 348.51,249.287 348.51,252.408 330.999,252.408 	"/>
	<path fill="#5F5E5E" d="M45.963,278.666h-7.546v7.613h7.546c2.099,0,3.65-1.755,3.65-3.792
		C49.613,280.454,48.062,278.666,45.963,278.666 M45.963,267.889h-7.546v7.615h7.546c2.099,0,3.65-1.75,3.65-3.792
		C49.613,269.679,48.062,267.889,45.963,267.889z M45.963,289.435H35.255v-24.706h10.708c3.822,0,6.807,3.192,6.807,6.983
		c0,2.042-0.914,4.034-2.489,5.375c1.576,1.331,2.489,3.329,2.489,5.399C52.769,286.245,49.784,289.435,45.963,289.435z"/>
	<path fill="#5F5E5E" d="M70.519,269.716L66.8,280.909h7.478L70.519,269.716 M77.12,289.435l-1.79-5.364h-9.576l-1.829,5.364h-3.299
		l8.247-24.706h3.297l8.247,24.706H77.12z"/>
	<path fill="#5F5E5E" d="M101.821,270.69c-1.022-1.72-2.84-2.806-4.883-2.806c-3.081,0-5.579,2.525-5.579,5.618v7.188
		c0,3.092,2.498,5.621,5.579,5.621c2.042,0,3.86-1.088,4.883-2.809l2.703,1.544c-1.546,2.741-4.424,4.383-7.586,4.383
		c-4.804,0-8.732-3.923-8.732-8.739v-7.187c0-4.844,3.928-8.741,8.732-8.741c3.162,0,6.04,1.644,7.623,4.388L101.821,270.69"/>
	<polyline fill="#5F5E5E" points="128.75,289.435 128.75,278.666 117.556,278.666 117.556,289.435 114.398,289.435 114.398,264.766 
		117.556,264.766 117.556,275.541 128.75,275.541 128.75,264.766 131.912,264.766 131.912,289.435 128.75,289.435 	"/>
	<polyline fill="#5F5E5E" points="142.944,289.435 142.944,264.766 160.458,264.766 160.458,267.889 146.103,267.889 
		146.103,275.541 160.458,275.541 160.458,278.666 146.103,278.666 146.103,286.315 160.458,286.315 160.458,289.435 
		142.944,289.435 	"/>
	<polyline fill="#5F5E5E" points="185.416,289.435 173.943,270.835 173.943,289.435 170.781,289.435 170.781,264.766 
		173.659,264.766 185.132,283.36 185.132,264.766 188.294,264.766 188.294,289.435 185.416,289.435 	"/>
	<polyline fill="#5F5E5E" points="213.686,289.435 213.686,278.666 202.495,278.666 202.495,289.435 199.338,289.435 
		199.338,264.766 202.495,264.766 202.495,275.541 213.686,275.541 213.686,264.766 216.846,264.766 216.846,289.435 
		213.686,289.435 	"/>
	<polyline fill="#5F5E5E" points="227.882,289.435 227.882,264.766 245.393,264.766 245.393,267.889 231.04,267.889 231.04,275.541 
		245.393,275.541 245.393,278.666 231.04,278.666 231.04,286.315 245.393,286.315 245.393,289.435 227.882,289.435 	"/>
	<rect x="255.755" y="264.763" fill="#5F5E5E" width="3.159" height="24.671"/>
	<polyline fill="#5F5E5E" points="288.991,289.435 288.991,272.837 282.498,289.435 279.619,289.435 273.052,272.837 
		273.052,289.435 269.894,289.435 269.894,264.766 272.918,264.766 281.057,284.944 289.136,264.766 292.153,264.766 
		292.153,289.435 288.991,289.435 	"/>
	<polyline fill="#5F5E5E" points="303.198,289.435 303.198,264.766 320.713,264.766 320.713,267.889 306.356,267.889 
		306.356,275.541 320.713,275.541 320.713,278.666 306.356,278.666 306.356,286.315 320.713,286.315 320.713,289.435 
		303.198,289.435 	"/>
	<path fill="#5F5E5E" d="M341.741,267.889h-7.545v7.652h7.545c2.103,0,3.644-1.787,3.644-3.83
		C345.385,269.679,343.842,267.889,341.741,267.889 M345.951,289.435l-4.81-10.769h-6.948v10.769h-3.159v-24.669h10.706
		c3.822,0,6.808,3.153,6.808,6.945c0,2.771-1.654,5.335-4.183,6.423l5.028,11.299L345.951,289.435L345.951,289.435z"/>
	<path fill="#5F5E5E" d="M220.393,304.913h-7.543v7.646h7.543c2.111,0,3.649-1.786,3.649-3.825
		C224.042,306.696,222.504,304.913,220.393,304.913 M220.393,315.678h-7.543v10.783h-3.161v-24.675h10.703
		c3.827,0,6.807,3.155,6.807,6.948C227.199,312.498,224.219,315.678,220.393,315.678z"/>
	<path fill="#5F5E5E" d="M254.059,317.716c0,4.812-3.93,8.747-8.775,8.747c-4.811,0-8.739-3.935-8.739-8.747v-15.938h3.158v15.937
		c0,3.095,2.492,5.606,5.581,5.606c3.125,0,5.614-2.512,5.614-5.606v-15.937h3.162V317.716"/>
	<path fill="#5F5E5E" d="M275.559,315.678h-7.544v7.615h7.544c2.101,0,3.646-1.747,3.646-3.792
		C279.205,317.472,277.66,315.678,275.559,315.678 M275.559,304.913h-7.544v7.612h7.544c2.101,0,3.646-1.753,3.646-3.79
		C279.205,306.699,277.66,304.913,275.559,304.913z M275.559,326.462h-10.704v-24.711h10.704c3.823,0,6.808,3.191,6.808,6.984
		c0,2.038-0.917,4.029-2.491,5.369c1.574,1.322,2.491,3.333,2.491,5.397C282.367,323.262,279.382,326.462,275.559,326.462z"/>
	<polyline fill="#5F5E5E" points="292.532,326.462 292.532,301.778 295.692,301.778 295.692,323.337 310.046,323.337 
		310.046,326.462 292.532,326.462 	"/>
	<rect x="319.296" y="301.784" fill="#5F5E5E" width="3.159" height="24.678"/>
	<path fill="#5F5E5E" d="M346.477,307.72c-1.018-1.725-2.841-2.808-4.883-2.808c-3.083,0-5.583,2.528-5.583,5.612v7.199
		c0,3.085,2.5,5.612,5.583,5.612c2.042,0,3.865-1.093,4.883-2.809l2.701,1.545c-1.543,2.734-4.425,4.389-7.584,4.389
		c-4.803,0-8.731-3.936-8.731-8.737v-7.199c0-4.841,3.929-8.738,8.731-8.738c3.159,0,6.041,1.654,7.625,4.387L346.477,307.72"/>
	<path fill="#5F5E5E" d="M143.308,341.937h-7.543v7.648h7.543c2.101,0,3.647-1.785,3.647-3.827
		C146.955,343.727,145.411,341.937,143.308,341.937 M147.52,363.483l-4.81-10.777h-6.945v10.777h-3.162v-24.661h10.705
		c3.824,0,6.808,3.151,6.808,6.938c0,2.771-1.646,5.336-4.172,6.429l5.018,11.294H147.52z"/>
	<polyline fill="#5F5E5E" points="160.723,363.483 160.723,338.822 178.235,338.822 178.235,341.937 163.883,341.937 
		163.883,349.586 178.235,349.586 178.235,352.707 163.883,352.707 163.883,360.371 178.235,360.371 178.235,363.483 
		160.723,363.483 	"/>
	<polyline fill="#5F5E5E" points="188.561,363.483 188.561,338.822 191.722,338.822 191.722,360.371 206.072,360.371 
		206.072,363.483 188.561,363.483 	"/>
	<path fill="#5F5E5E" d="M222.005,343.756l-3.721,11.199h7.477L222.005,343.756 M228.602,363.483l-1.787-5.369h-9.581l-1.828,5.369
		h-3.303l8.254-24.71h3.297l8.245,24.71H228.602z"/>
	<polyline fill="#5F5E5E" points="246.692,341.937 246.692,363.483 243.573,363.483 243.573,341.937 236.378,341.937 
		236.378,338.822 253.892,338.822 253.892,341.937 246.692,341.937 	"/>
	<rect x="263.118" y="338.812" fill="#5F5E5E" width="3.156" height="24.671"/>
	<path fill="#5F5E5E" d="M291.04,347.551c0-3.095-2.491-5.622-5.62-5.622c-3.084,0-5.575,2.527-5.575,5.622v7.198
		c0,3.075,2.491,5.604,5.575,5.604c3.13,0,5.62-2.528,5.62-5.604V347.551 M294.199,354.749c0,4.802-3.931,8.734-8.779,8.734
		c-4.807,0-8.734-3.933-8.734-8.734v-7.198c0-4.85,3.93-8.744,8.734-8.744c4.849,0,8.779,3.894,8.779,8.744V354.749z"/>
	<polyline fill="#5F5E5E" points="319.253,363.483 307.776,344.886 307.776,363.483 304.615,363.483 304.615,338.822 
		307.491,338.822 318.969,357.416 318.969,338.822 322.128,338.822 322.128,363.483 319.253,363.483 	"/>
	<path fill="#5F5E5E" d="M342.586,363.483h-3.896c-3.02,0-5.509-1.965-6.42-4.66l2.943-1.029c0.527,1.511,1.896,2.575,3.476,2.575
		h3.896c1.962,0,3.65-1.696,3.65-3.841c0-1.962-1.337-2.808-3.191-3.326c-1.439-0.389-3.121-0.599-4.812-0.952
		c-3.299-0.67-6.35-1.937-6.35-6.491c0-3.787,2.986-6.938,6.807-6.938h3.897c2.986,0,5.503,1.961,6.423,4.626l-2.987,1.017
		c-0.494-1.508-1.859-2.527-3.438-2.527h-3.896c-2.005,0-3.65,1.688-3.65,3.822c0,1.968,1.335,2.81,3.192,3.336
		c1.437,0.386,3.131,0.592,4.812,0.951c3.295,0.659,6.351,1.928,6.351,6.481C349.393,360.324,346.38,363.483,342.586,363.483"/>
</g>
<polyline fill="#E9AA00" points="365.607,363.238 365.607,227.387 458.789,227.387 458.789,235.49 373.517,235.49 373.517,291.257 
	458.789,291.257 458.789,299.366 373.517,299.366 373.517,355.329 458.789,355.329 458.789,363.238 365.607,363.238 "/>
<path fill="#E9AA00" d="M535.586,299.366h-50.354v55.963h50.354c14.669,0,27.024-12.545,27.024-27.987
	C562.611,311.717,550.255,299.366,535.586,299.366 M535.586,235.3h-50.354v55.957h50.354c14.669,0,27.024-12.35,27.024-27.973
	C562.611,247.84,550.255,235.3,535.586,235.3z M535.586,363.238h-58.264V227.387h58.264c19.492,0,34.934,16.21,34.934,35.896
	c0,13.885-7.718,26.047-18.918,32.021c11.2,5.989,18.918,18.146,18.918,32.036C570.521,347.022,555.079,363.238,535.586,363.238z"/>
<path fill="#E9AA00" d="M647.315,252.669h-34.16v29.906h34.16c8.298,0,14.283-6.951,14.283-14.864
	C661.598,259.805,655.613,252.669,647.315,252.669 M647.315,308.049h-34.16v55.188h-25.263v-135.85h59.423
	c22.198,0,39.562,18.526,39.562,40.325C686.877,289.521,669.513,308.049,647.315,308.049z"/>
<path fill="#E9AA00" d="M760.97,252.669h-34.152v29.906h34.152c8.308,0,14.278-6.945,14.278-14.853
	C775.248,259.812,769.278,252.669,760.97,252.669 M779.878,363.238l-24.692-55.188h-28.368v55.188h-25.271V227.387h59.424
	c22.189,0,39.56,18.526,39.56,40.335c0,14.278-7.728,27.783-20.072,35.118l27.218,60.397H779.878z"/>
</svg>
